<?xml version="1.0" encoding="UTF-8"?>
<svg id="Layer_1" data-name="Layer 1" xmlns="http://www.w3.org/2000/svg" xmlns:xlink="http://www.w3.org/1999/xlink" viewBox="0 0 198.88 183.39">
  <defs>
    <style>
      .cls-1 {
        fill: none;
      }

      .cls-1, .cls-2 {
        stroke-width: 0px;
      }

      .cls-2 {
        fill: #fff6e1;
      }

      .cls-3 {
        clip-path: url(#clippath);
      }
    </style>
    <clipPath id="clippath">
      <rect class="cls-1" y="0" width="198.86" height="183.38"/>
    </clipPath>
  </defs>
  <g class="cls-3">
    <path class="cls-2" d="m146.06,127.92c-3.18,0-6.35.06-9.53-.02-3.43-.09-3.44-.01-4.65,3.12-2.32,5.98-4.68,11.95-7.24,17.82-2.25,5.51-4.83,10.88-7.71,16.09-3.14,5.35-5.63,11.14-10.44,15.49-4.33,3.92-9.85,3.96-14.14.01-3.39-3.12-5.49-6.99-7.75-10.8-2.07-3.5-4.18-7-5.91-10.67-2.58-5.44-4.91-11-7.21-16.57-1.78-4.32-3.29-8.76-5.1-13.07-.51-.76-1.35-1.24-2.26-1.3-4-.09-8.01.03-12.01.08-11.87.19-23.72-1.1-35.28-3.83-4.99-1.2-9.59-3.14-13.4-6.73-3.52-3.32-4.22-6.97-2.57-11.52,1.57-4.34,4.62-7.5,7.96-10.26,10.57-8.74,21.27-17.33,32.1-25.77,4.58-3.58,4.68-3.34,3.17-8.94-2.44-9.1-5.12-18.16-7.06-27.38-1.56-7.38-2.56-14.86-2.99-22.38-.49-8.96,6.03-12.78,13.95-10.79,5.73,1.43,11.26,3.94,16.65,6.45,10.89,5.05,21.36,10.97,31.29,17.72,3.3,2.25,3.68,2.23,6.98.02,11.95-8.08,24.64-15,37.91-20.66C145.2,2.2,149.45,0,154.39.05c6.15.07,10.29,3.54,10.3,9.66-.13,5.42-.64,10.83-1.53,16.18-1.8,12.73-5.21,25.08-9.07,37.32-1.04,3.29-.62,3.75,2.31,5.8,4.88,3.4,9.69,6.94,14.34,10.66,6.3,5.04,12.5,10.2,18.6,15.49,4,3.46,7.79,7.12,9.17,12.6.98,3.34-.03,6.95-2.6,9.31-3.85,3.9-8.66,5.98-13.89,7.22-11.77,2.82-23.86,4.04-35.96,3.64m-46.73-31.9c5.64,4.92,10.51,5.66,16.66,2.58,1.77-.89,2.77-2.65,1.94-3.76-1.11-1.48-2.47-1.24-3.99-.37-4.64,2.65-10.36,1.09-12.29-3.56-.46-.75-1.26-1.23-2.14-1.28-.94.06-1.8.56-2.33,1.34-1.9,4.48-7.55,6.22-12.33,3.48-1.53-.88-3.07-1.15-3.93.46s.26,2.83,1.76,3.62c6.07,3.18,11.83,2.36,16.66-2.51m-21.01-24.45c-4.14-.1-7.77,4.29-7.45,8.65.26,3.45,2.95,6.27,5.94,6.07,3.68-.25,7.29-4.99,7.06-9.25-.16-2.85-2.97-5.62-5.55-5.47m40.93.03c-3.14,0-5.78,2.37-6.12,5.49-.2,4.3,3.68,9,7.6,9.2,3.13.16,5.89-2.55,6.29-5.89.5-4.23-3.51-9.03-7.77-8.8"/>
  </g>
</svg>
