<svg xmlns="http://www.w3.org/2000/svg" xmlns:xlink="http://www.w3.org/1999/xlink" width="266" height="66.134" viewBox="0 0 266 66.134">
    <defs>
        <clipPath id="clip-path">
            <rect id="사각형_15" data-name="사각형 15" width="178.28" height="66.134" fill="#fff6e1"/>
        </clipPath>
        <clipPath id="clip-path-2">
            <rect id="사각형_25" data-name="사각형 25" width="71.714" height="66.134" fill="#fff6e1"/>
        </clipPath>
    </defs>
    <g id="그룹_13" data-name="그룹 13" transform="translate(-523 -62)">
        <g id="그룹_2" data-name="그룹 2" transform="translate(610.721 62)">
            <g id="그룹_1" data-name="그룹 1" transform="translate(0 0)" clip-path="url(#clip-path)">
                <path id="패스_1" data-name="패스 1" d="M49.871,1.281v16.6c0,5.2-2.908,11.323-11.962,11.323S25.946,23.079,25.946,17.883V1.281a.536.536,0,0,1,.537-.537h6.684a.536.536,0,0,1,.537.537l0,16.75c0,2.093,1.021,4.564,4.205,4.564s4.2-2.471,4.2-4.564V1.281a.536.536,0,0,1,.537-.537h6.681a.533.533,0,0,1,.537.537" transform="translate(-2.722 -0.078)" fill="#fff6e1"/>
                <path id="패스_2" data-name="패스 2" d="M54.521,1.284a.538.538,0,0,1,.54-.541H68.19c4.528,0,8.2,3.179,8.2,9.9s-3.67,9.9-8.2,9.9H62.284v7.307a.541.541,0,0,1-.54.541H55.061a.54.54,0,0,1-.54-.541Zm14.036,9.362c0-2.144-1.275-3.44-2.849-3.44H62.552a.27.27,0,0,0-.27.269v6.341a.27.27,0,0,0,.27.269h3.156c1.575,0,2.849-1.3,2.849-3.44" transform="translate(-5.719 -0.078)" fill="#fff6e1"/>
                <path id="패스_3" data-name="패스 3" d="M80.783,27.856V1.284a.538.538,0,0,1,.54-.54H97.572a.54.54,0,0,1,.54.54V6.8a.54.54,0,0,1-.54.54H88.544v3.932h7.8a.539.539,0,0,1,.54.54v5.517a.54.54,0,0,1-.54.541h-7.8V21.8h9.028a.541.541,0,0,1,.54.541v5.514a.54.54,0,0,1-.54.54H81.323a.539.539,0,0,1-.54-.54" transform="translate(-8.473 -0.078)" fill="#fff6e1"/>
                <path id="패스_4" data-name="패스 4" d="M123.982,28.252a.543.543,0,0,1-.543.55h-7.172a.543.543,0,0,1-.538-.529c-.162-4.523-2.428-6.859-5.995-7.088v7.08a.539.539,0,0,1-.54.54h-6.684a.539.539,0,0,1-.54-.54V1.284a.538.538,0,0,1,.54-.541H115.64c4.528,0,8.2,3.179,8.2,9.9,0,3.956-1.28,6.676-3.248,8.252a14.434,14.434,0,0,1,3.389,9.355m-14.25-14.42a.261.261,0,0,0,.27.252h3.156a2.9,2.9,0,0,0,2.849-3.195,2.9,2.9,0,0,0-2.849-3.195H110a.262.262,0,0,0-.27.251Z" transform="translate(-10.696 -0.078)" fill="#fff6e1"/>
                <path id="패스_5" data-name="패스 5" d="M9.11,7.72a2.8,2.8,0,0,0,.4,1.769,4.09,4.09,0,0,0,1.731,1.122l4.526,1.75a11.312,11.312,0,0,1,4.81,3.176,8.52,8.52,0,0,1,1.352,5.229,10.527,10.527,0,0,1-.5,3.575A5.839,5.839,0,0,1,19.416,27q-2.7,1.978-8.214,1.978-5.364,0-8.177-2.13A7.7,7.7,0,0,1,0,20.923a.542.542,0,0,1,.539-.576H7.769a.535.535,0,0,1,.534.473,2.679,2.679,0,0,0,.882,1.848,2.819,2.819,0,0,0,2.017.571,2.454,2.454,0,0,0,1.805-.59,2.291,2.291,0,0,0,.591-1.693,3.309,3.309,0,0,0-.61-2.148,5.269,5.269,0,0,0-2.206-1.351L6.257,15.631a9.941,9.941,0,0,1-4.108-2.548A7.3,7.3,0,0,1,.781,8.29q0-4.487,3.042-6.427A13.5,13.5,0,0,1,11.2,0a11.9,11.9,0,0,1,7.454,2.244,5.8,5.8,0,0,1,1.769,2.662,10.655,10.655,0,0,1,.687,3.151.543.543,0,0,1-.539.576H14.007a.538.538,0,0,1-.538-.5,2.988,2.988,0,0,0-.481-1.647A2.164,2.164,0,0,0,11.2,5.857a2.177,2.177,0,0,0-1.446.551A1.675,1.675,0,0,0,9.11,7.72" transform="translate(0 0)" fill="#fff6e1"/>
                <path id="패스_6" data-name="패스 6" d="M20.112,42.087h7.01a.54.54,0,0,1,.54.54V69.2a.539.539,0,0,1-.54.54H20.439a.539.539,0,0,1-.54-.54V55.762L17.847,64.43a.54.54,0,0,1-.524.416H10.339a.54.54,0,0,1-.524-.416L7.763,55.762V69.2a.539.539,0,0,1-.54.54H.54A.539.539,0,0,1,0,69.2V42.627a.538.538,0,0,1,.54-.54H7.545a.532.532,0,0,1,.372.149c2.533,2.522,5.911,11.809,5.911,11.809s3.378-9.287,5.911-11.809a.515.515,0,0,1,.372-.149" transform="translate(0 -4.414)" fill="#fff6e1"/>
                <path id="패스_7" data-name="패스 7" d="M84.738,42.087h6.686a.54.54,0,0,1,.54.54V69.2a.539.539,0,0,1-.54.54H84.517a.534.534,0,0,1-.47-.272l-8.671-15.32V69.2a.54.54,0,0,1-.541.54H68.153a.54.54,0,0,1-.541-.54V42.627a.539.539,0,0,1,.541-.54h6.924a.533.533,0,0,1,.457.254L84.2,56.3V42.627a.538.538,0,0,1,.537-.54" transform="translate(-7.092 -4.414)" fill="#fff6e1"/>
                <path id="패스_8" data-name="패스 8" d="M142.918,48.135a.539.539,0,0,1-.54.54H136.31V69.2a.541.541,0,0,1-.54.541h-6.684a.54.54,0,0,1-.54-.541V48.672h-6.068a.54.54,0,0,1-.541-.54V42.627a.539.539,0,0,1,.541-.541h19.9a.54.54,0,0,1,.537.541Z" transform="translate(-12.79 -4.414)" fill="#fff6e1"/>
                <path id="패스_9" data-name="패스 9" d="M159.39,42.438l9.789,26.4a.52.52,0,0,1,.033.186V69.2a.541.541,0,0,1-.541.537h-6.788a.54.54,0,0,1-.5-.351l-1.469-3.972h-8.833l-1.489,3.975a.539.539,0,0,1-.5.351h-6.791a.539.539,0,0,1-.54-.54v-.173a.567.567,0,0,1,.032-.189l9.786-26.4a.539.539,0,0,1,.5-.351h6.81a.539.539,0,0,1,.5.351m-2,16.189L155.48,53.52l-1.893,5.107Z" transform="translate(-14.869 -4.414)" fill="#fff6e1"/>
                <path id="패스_10" data-name="패스 10" d="M196.592,69.6a.543.543,0,0,1-.543.55h-7.172a.543.543,0,0,1-.538-.529c-.162-4.523-2.428-6.859-5.995-7.088v7.08a.539.539,0,0,1-.54.54h-6.684a.539.539,0,0,1-.54-.54V42.627a.538.538,0,0,1,.54-.541H188.25c4.528,0,8.2,3.179,8.2,9.9,0,3.956-1.28,6.676-3.248,8.253a14.43,14.43,0,0,1,3.389,9.354m-14.25-14.42a.261.261,0,0,0,.27.252h3.156a2.9,2.9,0,0,0,2.849-3.195,2.9,2.9,0,0,0-2.849-3.195h-3.156a.262.262,0,0,0-.27.251Z" transform="translate(-18.312 -4.414)" fill="#fff6e1"/>
                <path id="패스_11" data-name="패스 11" d="M105.54,49.063a2.8,2.8,0,0,0,.4,1.769,4.086,4.086,0,0,0,1.73,1.122L112.2,53.7a11.318,11.318,0,0,1,4.81,3.176,8.527,8.527,0,0,1,1.351,5.229,10.53,10.53,0,0,1-.495,3.575,5.839,5.839,0,0,1-2.015,2.662q-2.7,1.978-8.215,1.978-5.363,0-8.177-2.13a7.7,7.7,0,0,1-3.023-5.927.542.542,0,0,1,.539-.576H104.2a.537.537,0,0,1,.535.473,2.675,2.675,0,0,0,.882,1.847,2.818,2.818,0,0,0,2.016.571,2.456,2.456,0,0,0,1.806-.59,2.291,2.291,0,0,0,.59-1.693,3.314,3.314,0,0,0-.609-2.148,5.281,5.281,0,0,0-2.206-1.351l-4.526-1.825a9.941,9.941,0,0,1-4.108-2.548,7.3,7.3,0,0,1-1.369-4.792q0-4.487,3.042-6.427a13.5,13.5,0,0,1,7.378-1.864,11.9,11.9,0,0,1,7.454,2.244,5.8,5.8,0,0,1,1.769,2.662,10.684,10.684,0,0,1,.687,3.151.543.543,0,0,1-.54.576h-6.565a.538.538,0,0,1-.538-.5,2.981,2.981,0,0,0-.48-1.647,2.5,2.5,0,0,0-3.233-.076,1.673,1.673,0,0,0-.646,1.312" transform="translate(-10.115 -4.336)" fill="#fff6e1"/>
                <path id="패스_12" data-name="패스 12" d="M47.542,41.625A14.439,14.439,0,1,0,62.187,56.064,14.543,14.543,0,0,0,47.542,41.625m8.978,17.6a3.164,3.164,0,0,1-1.734.783,12.846,12.846,0,0,1-2.966.268c-.322,0-.644,0-.967,0-.4,0-.388,0-.535.356a30.836,30.836,0,0,1-1.244,2.9c-.239.453-.506.891-.765,1.332a2.155,2.155,0,0,1-.573.6.881.881,0,0,1-1.137-.026,2.737,2.737,0,0,1-.562-.612,18.569,18.569,0,0,1-1.625-3.3c-.124-.328-.276-.647-.382-.981a.364.364,0,0,0-.424-.277c-.571.012-1.143.025-1.713.011a12.941,12.941,0,0,1-2.778-.381,2.635,2.635,0,0,1-1.264-.672.893.893,0,0,1-.24-1.04,2.136,2.136,0,0,1,.422-.709,24.233,24.233,0,0,1,1.947-1.7A13.933,13.933,0,0,1,41.7,54.493a.366.366,0,0,0,.165-.482c-.149-.52-.293-1.042-.44-1.562a17.381,17.381,0,0,1-.6-3.318c-.082-1,.532-1.438,1.42-1.241a8.652,8.652,0,0,1,1.945.8,19.051,19.051,0,0,1,2.617,1.518.561.561,0,0,0,.747,0,21.4,21.4,0,0,1,3.774-2.05,3.69,3.69,0,0,1,.959-.308,1,1,0,0,1,1.254,1.05,9.746,9.746,0,0,1-.218,1.827,25.048,25.048,0,0,1-.77,3.105c-.141.48-.141.476.259.746a29.658,29.658,0,0,1,2.618,2.063,10.49,10.49,0,0,1,.935.861,2.032,2.032,0,0,1,.408.718.9.9,0,0,1-.255,1" transform="translate(-3.451 -4.366)" fill="#fff6e1"/>
            </g>
        </g>
        <g id="그룹_7" data-name="그룹 7" transform="translate(523 62)">
            <g id="그룹_6" data-name="그룹 6" clip-path="url(#clip-path-2)">
                <path id="패스_14" data-name="패스 14" d="M52.675,46.132c-1.145,0-2.291.023-3.436-.006C48,46.094,48,46.12,47.56,47.25c-.837,2.155-1.686,4.308-2.612,6.427a54.9,54.9,0,0,1-2.779,5.8c-1.131,1.93-2.031,4.018-3.764,5.587a3.588,3.588,0,0,1-5.1.005,16.053,16.053,0,0,1-2.794-3.9c-.747-1.262-1.507-2.525-2.133-3.848-.929-1.963-1.772-3.968-2.6-5.976-.644-1.558-1.187-3.157-1.837-4.712a1.064,1.064,0,0,0-.815-.468c-1.443-.031-2.888.012-4.332.028A51.637,51.637,0,0,1,6.069,44.818,10.346,10.346,0,0,1,1.235,42.39a3.507,3.507,0,0,1-.928-4.154,8.752,8.752,0,0,1,2.87-3.7Q8.9,29.807,14.752,25.244c1.65-1.289,1.686-1.2,1.144-3.222-.881-3.283-1.848-6.55-2.544-9.873a54.027,54.027,0,0,1-1.077-8.072C12.1.845,14.45-.531,17.3.184a33.973,33.973,0,0,1,6,2.327A79.544,79.544,0,0,1,34.591,8.9c1.188.812,1.327.8,2.519.006a81.172,81.172,0,0,1,13.672-7.45,12.263,12.263,0,0,1,4.9-1.441C57.9.042,59.388,1.293,59.391,3.5a41.454,41.454,0,0,1-.553,5.834,84.09,84.09,0,0,1-3.272,13.458c-.374,1.186-.224,1.354.834,2.091,1.762,1.228,3.494,2.5,5.172,3.845q3.409,2.724,6.707,5.585a9.064,9.064,0,0,1,3.307,4.543,3.3,3.3,0,0,1-.936,3.357,10.051,10.051,0,0,1-5.008,2.605,48.8,48.8,0,0,1-12.968,1.314m-16.851-11.5c2.035,1.776,3.791,2.04,6.009.932.639-.32,1-.957.7-1.355-.4-.533-.89-.447-1.44-.133a3.06,3.06,0,0,1-4.434-1.282.981.981,0,0,0-.772-.463,1.106,1.106,0,0,0-.842.482A3.072,3.072,0,0,1,30.6,34.061c-.551-.316-1.106-.414-1.416.166s.094,1.021.636,1.3a4.739,4.739,0,0,0,6.007-.9m-7.389-8.817a2.988,2.988,0,0,0-2.873,3.12,2.3,2.3,0,0,0,2.291,2.187,3.355,3.355,0,0,0,2.724-3.335,2.247,2.247,0,0,0-2.142-1.973m14.573.01A2.224,2.224,0,0,0,40.8,27.8a3.35,3.35,0,0,0,2.742,3.319,2.316,2.316,0,0,0,2.268-2.125,2.983,2.983,0,0,0-2.8-3.173" transform="translate(0 0)" fill="#fff6e1"/>
            </g>
        </g>
    </g>
</svg>
